<svg width="16" height="16" xmlns="http://www.w3.org/2000/svg" class="bi bi-arrows-angle-expand" fill="currentColor">

 <g>
  <title>Layer 1</title>
  <path transform="rotate(90 8 8)" id="svg_1" d="m5.828,10.172a0.5,0.5 0 0 0 -0.707,0l-4.096,4.096l0,-2.768a0.5,0.5 0 0 0 -1,0l0,3.975a0.5,0.5 0 0 0 0.5,0.5l3.975,0a0.5,0.5 0 0 0 0,-1l-2.768,0l4.096,-4.096a0.5,0.5 0 0 0 0,-0.707zm4.344,-4.344a0.5,0.5 0 0 0 0.707,0l4.096,-4.096l0,2.768a0.5,0.5 0 1 0 1,0l0,-3.975a0.5,0.5 0 0 0 -0.5,-0.5l-3.975,0a0.5,0.5 0 0 0 0,1l2.768,0l-4.096,4.096a0.5,0.5 0 0 0 0,0.707z" fill-rule="evenodd"/>
 </g>
</svg>