<svg width="16" height="16" xmlns="http://www.w3.org/2000/svg" class="bi bi-pencil-square" fill="currentColor">

 <g>
  <title>Layer 1</title>
  <path fill="#444444" id="svg_1" d="m15.502,1.94a0.5,0.5 0 0 1 0,0.706l-1.043,1.044l-2,-2l1.043,-1.044a0.5,0.5 0 0 1 0.707,0l1.293,1.293l0,0.001zm-1.75,2.456l-2,-2l-6.813,6.814a0.5,0.5 0 0 0 -0.121,0.196l-0.805,2.414a0.25,0.25 0 0 0 0.316,0.316l2.414,-0.805a0.5,0.5 0 0 0 0.196,-0.12l6.813,-6.814l0,-0.001z"/>
  <path fill="#444444" id="svg_2" d="m1,13.5a1.5,1.5 0 0 0 1.5,1.5l11,0a1.5,1.5 0 0 0 1.5,-1.5l0,-6a0.5,0.5 0 0 0 -1,0l0,6a0.5,0.5 0 0 1 -0.5,0.5l-11,0a0.5,0.5 0 0 1 -0.5,-0.5l0,-11a0.5,0.5 0 0 1 0.5,-0.5l6.5,0a0.5,0.5 0 0 0 0,-1l-6.5,0a1.5,1.5 0 0 0 -1.5,1.5l0,11z" fill-rule="evenodd"/>
 </g>
</svg>