<svg width="260.666" height="260.666" xmlns="http://www.w3.org/2000/svg" xml:space="preserve" version="1.1">

 <g>
  <title>Layer 1</title>
  <rect stroke="#000" id="svg_24" height="158.37987" width="238.29255" y="51.40177" x="11.45439" fill="#535F75"/>
  <g id="svg_1">
   <path id="svg_2" d="m236.666,40.882l-212.666,0c-13.233,0 -24,10.767 -24,24l0,130.902c0,13.233 10.767,24 24,24l212.666,0c13.233,0 24,-10.767 24,-24l0,-130.902c0,-13.234 -10.767,-24 -24,-24zm9,154.902c0,4.962 -4.037,9 -9,9l-212.666,0c-4.963,0 -9,-4.038 -9,-9l0,-130.902c0,-4.962 4.037,-9 9,-9l212.666,0c4.963,0 9,4.038 9,9l0,130.902z"/>
   <path id="svg_3" d="m216.04,83.703l-68.933,0c-3.314,0 -6,2.687 -6,6s2.686,6 6,6l68.933,0c3.314,0 6,-2.687 6,-6s-2.686,-6 -6,-6z"/>
   <path id="svg_4" d="m216.04,164.963l-68.933,0c-3.314,0 -6,2.686 -6,6c0,3.313 2.686,6 6,6l68.933,0c3.314,0 6,-2.687 6,-6c0,-3.314 -2.686,-6 -6,-6z"/>
   <path id="svg_5" d="m216.04,118.411l-41.718,0c-3.313,0 -6,2.687 -6,6s2.687,6 6,6l41.718,0c3.314,0 6,-2.687 6,-6s-2.686,-6 -6,-6z"/>
   <path id="svg_6" d="m216.04,141.686l-41.718,0c-3.313,0 -6,2.687 -6,6c0,3.314 2.687,6 6,6l41.718,0c3.314,0 6,-2.686 6,-6c0,-3.313 -2.686,-6 -6,-6z"/>
   <path id="svg_7" d="m85.163,133.136c17.004,0 30.838,-13.839 30.838,-30.849c0,-17.011 -13.834,-30.85 -30.838,-30.85c-17.009,0 -30.847,13.839 -30.847,30.85c0,17.01 13.838,30.849 30.847,30.849zm0,-46.698c8.733,0 15.838,7.11 15.838,15.85c0,8.739 -7.104,15.849 -15.838,15.849c-8.738,0 -15.847,-7.11 -15.847,-15.849c0,-8.74 7.109,-15.85 15.847,-15.85z"/>
   <path id="svg_8" d="m97.097,138.68l-23.682,0c-16.592,0 -30.09,13.497 -30.09,30.088l0,12.961c0,4.142 3.357,7.5 7.5,7.5s7.5,-3.358 7.5,-7.5l0,-12.961c0,-8.319 6.77,-15.088 15.09,-15.088l23.682,0c8.32,0 15.09,6.768 15.09,15.088l0,12.961c0,4.142 3.357,7.5 7.5,7.5s7.5,-3.358 7.5,-7.5l0,-12.961c0,-16.591 -13.499,-30.088 -30.09,-30.088z"/>
  </g>
  <g id="svg_9"/>
  <g id="svg_10"/>
  <g id="svg_11"/>
  <g id="svg_12"/>
  <g id="svg_13"/>
  <g id="svg_14"/>
  <g id="svg_15"/>
  <g id="svg_16"/>
  <g id="svg_17"/>
  <g id="svg_18"/>
  <g id="svg_19"/>
  <g id="svg_20"/>
  <g id="svg_21"/>
  <g id="svg_22"/>
  <g id="svg_23"/>
 </g>
</svg>