<svg width="16" height="16" xmlns="http://www.w3.org/2000/svg" class="bi bi-image" fill="currentColor">

 <g>
  <title>Layer 1</title>
  <path fill="#444444" id="svg_1" d="m6.002,5.5a1.5,1.5 0 1 1 -3,0a1.5,1.5 0 0 1 3,0z"/>
  <path fill="#444444" id="svg_2" d="m2.002,1a2,2 0 0 0 -2,2l0,10a2,2 0 0 0 2,2l12,0a2,2 0 0 0 2,-2l0,-10a2,2 0 0 0 -2,-2l-12,0zm12,1a1,1 0 0 1 1,1l0,6.5l-3.777,-1.947a0.5,0.5 0 0 0 -0.577,0.093l-3.71,3.71l-2.66,-1.772a0.5,0.5 0 0 0 -0.63,0.062l-2.646,2.354l0,-9a1,1 0 0 1 1,-1l12,0z"/>
 </g>
</svg>